<svg width="34" height="34" viewBox="0 0 34 34" fill="none" xmlns="http://www.w3.org/2000/svg">
<path fill-rule="evenodd" clip-rule="evenodd" d="M4.29729 17.182C4.08092 16.7809 4.08092 16.2944 4.29729 15.8934C6.90484 11.0711 11.7216 6.89099 16.5384 6.89099C21.3552 6.89099 26.172 11.0711 28.7796 15.8947C28.996 16.2958 28.996 16.7823 28.7796 17.1834C26.172 22.0057 21.3552 26.1857 16.5384 26.1857C11.7216 26.1857 6.90484 22.0057 4.29729 17.182Z" stroke="#828282" stroke-width="2.06729" stroke-linecap="round" stroke-linejoin="round"/>
<path d="M19.462 13.6148C21.0766 15.2295 21.0766 17.8473 19.462 19.462C17.8473 21.0766 15.2295 21.0766 13.6148 19.462C12.0001 17.8473 12.0001 15.2295 13.6148 13.6148C15.2295 12.0001 17.8473 12.0001 19.462 13.6148" stroke="#828282" stroke-width="1.96889" stroke-linecap="round" stroke-linejoin="round"/>
<line x1="4.73593" y1="3.32294" x2="27.7359" y2="28.3229" stroke="#828282" stroke-width="2"/>
</svg>
